<?xml version="1.0" encoding="UTF-8"?>
<svg xmlns="http://www.w3.org/2000/svg" xmlns:xlink="http://www.w3.org/1999/xlink" xmlns:svgjs="http://svgjs.com/svgjs" version="1.1" width="512" height="512" x="0" y="0" viewBox="0 0 512 512" style="enable-background:new 0 0 512 512" xml:space="preserve" class="">
  <g>
    <defs xmlns="http://www.w3.org/2000/svg">
      <linearGradient id="linear-gradient" x1="492" y1="252" x2="20" y2="252" gradientUnits="userSpaceOnUse">
        <stop stop-opacity="1" stop-color="#560ea2" offset="0"/>
        <stop stop-opacity="1" stop-color="#f2f850" offset="0"/>
      </linearGradient>
    </defs>
    <g xmlns="http://www.w3.org/2000/svg" id="solid_gradient" data-name="solid gradient">
      <path d="M154.812,268c7.788,0,15.14-7,17.063-16.781,2.127-10.82-3.186-21.008-11.842-22.711s-17.43,5.716-19.557,16.538,3.185,21.01,11.841,22.711A12.894,12.894,0,0,0,154.812,268ZM417.429,141.018l-27.8-15.853a4,4,0,0,0-5.456,1.493l-9.908,17.374-3.475-1.982a4,4,0,0,0-5.456,1.493l-11.89,20.849a4,4,0,0,0,1.493,5.456l3.016,1.719-25.066,33.484A48.9,48.9,0,0,1,306.657,222.9a42.387,42.387,0,0,0-25.471,19.758l-24.213,42.461-64.348,21.443A63.757,63.757,0,0,0,164.34,300H156v-8.367A88.118,88.118,0,0,0,236,204v-7.834a94.572,94.572,0,0,0,24-63.026,89.155,89.155,0,0,0-85.78-89.078L171.938,31.3a4,4,0,0,0-5.727-2.874L136,43.528,105.789,28.422a4,4,0,0,0-5.6,4.8l3.515,10.94A89.253,89.253,0,0,0,20,133.14v8.07a86.543,86.543,0,0,0,19.773,55.12A19.984,19.984,0,0,0,56,228h7.327A88.41,88.41,0,0,0,108,282.372V300.9A66.822,66.822,0,0,0,52,366.95V488a4,4,0,0,0,4,4H224a4,4,0,0,0,4-4V378.2l31.933-10.161A22.979,22.979,0,0,0,276,346.064c0-.073-.006-.144-.006-.217l27.334,15.6a25.936,25.936,0,0,0,35.357-9.673l32.839-57.588c8.685-13.02,4.047-31.95,4.035-32a49.11,49.11,0,0,1,2-31.65l16.062-38.627,3.011,1.717a4,4,0,0,0,5.456-1.493l11.889-20.848a4,4,0,0,0-1.493-5.456l-3.474-1.981,9.908-17.374a4,4,0,0,0-1.493-5.456ZM251.037,295.53l-2.69,4.717a26.067,26.067,0,0,0-1.1,23.472c-.433.112-.865.235-1.3.372l-26.145,8.319a63.572,63.572,0,0,0-18.163-20.42ZM56,220a11.962,11.962,0,0,1-12-12c.106-8.609,8.938-12,12-12h4v8a88.17,88.17,0,0,0,1.462,16Zm12-16V165.209a44.649,44.649,0,0,0,40.717-12.27l3.824-3.823a121.117,121.117,0,0,0,103.452,12.436l12.007-4V204a80,80,0,0,1-160,0Zm80,88v29.91A10.1,10.1,0,0,1,137.91,332,21.935,21.935,0,0,1,116,310.09V285.976A87.548,87.548,0,0,0,148,292Zm72,192H60V366.95a58.827,58.827,0,0,1,48-57.922v1.062A29.944,29.944,0,0,0,137.91,340,18.11,18.11,0,0,0,156,321.91V308h8.34A55.308,55.308,0,0,1,212,334.894L94.787,372.188a4,4,0,1,0,2.426,7.624l129.418-41.179,8.984,28.747L94.787,412.188a4,4,0,1,0,2.426,7.624L220,380.743Zm37.507-123.586-14.268,4.54-8.983-28.747,14.12-4.493a15.059,15.059,0,0,1,9.131,28.7Zm77.241-17.889-76.44-43.6,19.817-34.751,76.439,43.6Zm35.429-115.06a57.136,57.136,0,0,0-4.042,27.63l-29.822-4.128-18.741-23.556a57.015,57.015,0,0,0,21.72-17.563l25.666-34.287,21.663,12.354Zm31.887-67.58L381.216,148l7.927-13.9,20.848,11.889ZM443.51,80.118,424.619,108.1a4,4,0,1,1-6.631-4.477l18.891-27.978a4,4,0,1,1,6.631,4.476Zm-56.934-.571,9.771-34.417a4,4,0,1,1,7.695,2.185l-9.771,34.417a4,4,0,0,1-7.695-2.185Zm102.639,22.779a4,4,0,0,1-1.558,5.439l-29.522,16.373a4,4,0,1,1-3.881-7l29.522-16.373A4,4,0,0,1,489.215,102.326ZM344,76a12,12,0,1,0-12-12A12.013,12.013,0,0,0,344,76Zm0-16a4,4,0,1,1-4,4A4,4,0,0,1,344,60ZM460,24a12,12,0,1,0-12,12A12.013,12.013,0,0,0,460,24Zm-12,4a4,4,0,1,1,4-4A4,4,0,0,1,448,28Zm32,56a12,12,0,1,0-12-12A12.013,12.013,0,0,0,480,84Zm0-16a4,4,0,1,1-4,4A4,4,0,0,1,480,68Zm-16,88a12,12,0,1,0,12,12A12.013,12.013,0,0,0,464,156Zm0,16a4,4,0,1,1,4-4A4,4,0,0,1,464,172ZM128,192a8,8,0,1,1-8-8A8,8,0,0,1,128,192Zm64,0a8,8,0,1,1,8,8A8,8,0,0,1,192,192Zm-76,16a4,4,0,0,1-4,4h-8a4,4,0,0,1,0-8h8A4,4,0,0,1,116,208Zm92-4h8a4,4,0,0,1,0,8h-8a4,4,0,0,1,0-8Zm-42.032,4a.824.824,0,0,0-.487-.788l-7.27-3.634a4,4,0,0,1,3.578-7.156l7.271,3.635a8.881,8.881,0,0,1,0,15.885l-7.271,3.636a4,4,0,1,1-3.578-7.156l7.27-3.635A.821.821,0,0,0,165.968,208Z" style="fill:url(#linear-gradient)" fill=""/>
    </g>
  </g>
</svg>
