<?xml version="1.0" encoding="UTF-8"?>
<svg xmlns="http://www.w3.org/2000/svg" xmlns:xlink="http://www.w3.org/1999/xlink" xmlns:svgjs="http://svgjs.com/svgjs" version="1.1" width="512" height="512" x="0" y="0" viewBox="0 0 511.987 511.987" style="enable-background:new 0 0 512 512" xml:space="preserve" class="">
  <g>
    <g xmlns="http://www.w3.org/2000/svg">
      <g>
        <g>
          <path d="m467.613 190.972c8.722-18.931 11.8-40.678 7.508-62.7-10.526-54.004-61.487-89.854-115.337-82.257-13.4-27.272-43.821-43.333-75.073-37.241-19.884 3.876-36.093 15.936-45.816 32.002-20.075-8.355-42.748-11.089-65.69-6.617-61.521 11.991-101.815 71.249-90.564 132.742-47.728 19.007-76.73 69.821-66.543 122.09 11.282 57.882 66.434 96.061 124.221 86.772 35.097 38.396 82.718 45.363 116.505 23.687 0 0 47.099 27.962 107.523 21.391 78.148-8.498 138.138-72.376 133.295-150.839-1.848-29.923-12.819-57.108-30.029-79.03z" fill="#f2f850" data-original="#aad667" class=""/>
          <g>
            <path d="m497.641 270.001c-1.847-29.922-12.818-57.107-30.028-79.029 8.722-18.931 11.8-40.678 7.508-62.7-10.526-54.004-61.487-89.854-115.337-82.257-13.4-27.272-43.821-43.333-75.073-37.241-2.319.452-4.582 1.026-6.797 1.694 18.045 5.493 33.378 18.263 41.87 35.547 53.851-7.597 104.811 28.253 115.337 82.257 4.292 22.022 1.215 43.769-7.508 62.7 17.21 21.922 28.181 49.107 30.028 79.029 4.818 78.053-54.525 141.665-132.075 150.692 11.973 1.345 25.03 1.642 38.781.147 78.148-8.498 138.137-72.376 133.294-150.839z" fill="#f2f850" data-original="#99c94f" class=""/>
          </g>
          <path d="m228.174 504.487 6.925-143.028-55.277-70.258-55.231-22.621h68.488l47.947 54.28v-99.544l-39.418-79.466 60.347 61.826 39.78-14.927-34.352 44.74v104.524l34.352-40.709h45.799l42.201-42.202-33.3 69.834h-42.661l-42.292 52.034 6.863 125.517z" fill="#e93393" data-original="#8f5a46" class=""/>
        </g>
      </g>
      <g fill="#060606">
        <path d="m505.126 269.539c-1.788-28.972-11.752-56.396-28.879-79.605 8.243-19.993 10.404-41.709 6.234-63.097-10.905-55.952-62.342-94.094-118.503-88.864-16.228-27.884-48.65-42.813-80.702-36.561-19.049 3.713-35.972 14.589-47.293 30.198-20.55-7.35-42.619-9.022-64.213-4.813-18.304 3.567-35.092 11.028-49.898 22.178-3.309 2.491-3.972 7.193-1.479 10.503 2.49 3.308 7.193 3.972 10.503 1.479 12.975-9.769 27.692-16.309 43.745-19.438 20.727-4.043 41.95-1.904 61.372 6.179 3.426 1.428 7.378.133 9.298-3.04 8.968-14.817 23.852-25.214 40.835-28.524 27.192-5.298 54.701 8.349 66.907 33.188 1.43 2.91 4.567 4.575 7.779 4.119 50.239-7.088 97.211 26.412 106.928 76.266 3.855 19.779 1.449 39.879-6.958 58.127-1.178 2.557-.825 5.557.912 7.771 16.914 21.543 26.749 47.429 28.442 74.858 2.191 35.506-9.747 69.663-33.614 96.178-23.571 26.185-56.602 42.785-93.006 46.744-35.167 3.823-65.876-4.79-83.284-11.408l-1.122-20.523 17.346-21.341c6.115-7.526-5.524-16.986-11.641-9.461l-19.172 23.589c-1.176 1.446-1.771 3.279-1.669 5.14l6.431 117.607h-34.379l6.545-135.165c.088-1.805-.479-3.58-1.597-5l-55.277-70.258c-.802-1.019-1.853-1.812-3.052-2.303l-19.976-8.182h27.008l45.708 51.745c4.481 5.072 13.121 1.804 13.121-4.965v-99.544c0-1.156-.268-2.297-.781-3.333l-18.284-36.86 27.127 27.791c2.077 2.13 5.215 2.825 8.002 1.784l15.224-5.713-18.379 23.938c-1.007 1.31-1.552 2.916-1.552 4.567v104.522c0 6.85 8.814 10.068 13.231 4.837l32.106-38.045h42.313c1.989 0 3.896-.79 5.304-2.196l11.347-11.348-12.481 26.176h-37.929c-9.697 0-9.697 15 0 15h42.661c2.892 0 5.525-1.662 6.77-4.271l33.3-69.834c3.537-7.417-6.262-14.344-12.073-8.531l-40.004 40.005h-42.691c-2.21 0-4.307.975-5.731 2.663l-21.122 25.028v-81.459l32.802-42.72c4.494-5.852-1.679-14.173-8.583-11.59l-35.198 13.207-56.928-58.322c-5.818-5.963-15.788 1.109-12.086 8.571l38.637 77.891v77.967l-34.828-39.426c-1.424-1.612-3.471-2.535-5.621-2.535h-68.487c-8.023 0-10.267 11.399-2.843 14.44l53.401 21.873 52.322 66.502-1.909 39.421c-27.589 4.149-57.004-7.775-79.708-32.614-1.705-1.864-4.229-2.74-6.727-2.345-26.063 4.191-52.37-1.827-74.072-16.945-21.751-15.151-36.523-37.829-41.597-63.855-9.329-47.863 16.727-95.676 61.955-113.688 3.32-1.322 5.246-4.803 4.604-8.317-4.936-26.974.592-54.488 15.562-77.477 2.26-3.471 1.278-8.117-2.192-10.378-3.471-2.259-8.117-1.278-10.378 2.192-15.974 24.53-22.52 53.581-18.686 82.418-48.49 22.27-75.908 75.169-65.587 128.118 5.822 29.873 22.779 55.903 47.745 73.295 23.804 16.58 52.438 23.624 81.045 20.018 22.191 22.909 49.794 35.396 77.11 35.394 3.404 0 6.804-.197 10.189-.589l-3.798 78.445h-82.703c-9.697 0-9.697 15 0 15h237c9.697 0 9.697-15 0-15h-89.878l-4.304-78.718c17.006 5.885 39.176 11.085 64.426 11.085 6.345 0 12.888-.329 19.588-1.058 40.077-4.358 76.49-22.69 102.533-51.621 26.583-29.532 39.878-67.581 37.436-107.137z" fill="#060606" data-original="#060606" class=""/>
        <path d="m424.693 147.146c0 9.697 15 9.697 15 0 0-37.247-30.302-67.55-67.548-67.55-9.697 0-9.697 15 0 15 28.975 0 52.548 23.574 52.548 52.55z" fill="#060606" data-original="#060606" class=""/>
      </g>
    </g>
  </g>
</svg>
